<svg xmlns="http://www.w3.org/2000/svg" xmlns:xlink="http://www.w3.org/1999/xlink" preserveAspectRatio="xMidYMid" width="67.312" height="64" viewBox="0 0 67.312 64">
  <defs>
    <style>
      .cls-1 {
        fill: #000;
        fill-rule: evenodd;
      }
    </style>
  </defs>
  <path d="M66.367,62.432 C66.090,62.614 65.779,62.601 65.431,62.805 C65.165,62.768 64.898,62.730 64.634,62.695 C59.740,62.159 54.846,62.337 49.409,61.980 C45.603,61.622 41.253,61.801 37.448,61.801 C46.468,62.130 55.948,62.006 64.615,63.243 C63.739,63.665 62.449,64.002 61.230,64.002 C58.297,63.836 55.295,63.719 52.289,63.639 C52.289,63.638 52.289,63.636 52.289,63.635 C44.435,63.427 36.741,63.464 28.935,63.518 C28.927,63.510 28.926,63.502 28.921,63.494 C28.922,63.501 28.926,63.511 28.927,63.518 C24.427,63.549 19.899,63.584 15.257,63.584 C14.714,63.584 13.626,63.584 13.082,63.584 C10.908,63.584 8.696,62.899 6.523,62.899 C7.065,62.005 5.198,60.248 9.206,60.605 C9.206,60.427 9.206,60.069 9.206,59.890 C5.198,58.997 3.259,56.494 7.610,55.778 C12.503,55.064 19.046,55.778 25.025,55.421 C29.376,55.242 33.735,55.064 38.084,55.421 C44.064,55.957 50.594,55.778 56.574,56.494 C58.750,56.672 62.559,56.136 63.646,56.672 C64.427,56.929 64.460,57.310 64.340,57.734 C60.765,57.671 57.202,57.652 53.678,57.574 C57.194,57.737 60.713,58.103 64.229,58.295 C64.100,58.660 63.977,58.618 64.191,59.611 C64.191,59.611 65.278,59.611 65.822,59.611 C67.998,59.611 67.453,61.538 66.367,62.432 ZM28.607,63.078 C28.770,63.132 28.858,63.280 28.898,63.404 C28.901,63.389 28.900,63.374 28.908,63.360 C36.878,63.187 44.336,63.291 52.289,63.632 C52.289,63.450 52.289,63.105 52.289,62.929 C44.274,63.466 36.763,62.184 28.607,63.078 ZM53.677,57.574 C49.354,57.373 45.031,57.151 40.710,56.795 C44.936,57.286 49.275,57.476 53.677,57.574 ZM29.394,63.615 C28.887,63.615 28.853,63.584 28.908,63.584 C28.923,63.584 28.929,63.558 28.927,63.518 C28.930,63.518 28.932,63.518 28.935,63.518 C28.997,63.572 29.128,63.615 29.394,63.615 ZM59.001,14.232 C59.186,14.524 58.936,14.885 59.023,15.238 C59.067,15.415 59.030,15.574 58.976,15.811 C58.751,16.428 58.828,17.196 58.665,17.910 C58.708,18.087 58.734,18.343 58.680,18.581 C58.746,19.764 58.812,20.946 58.540,22.136 C58.584,22.313 58.628,22.490 58.591,22.648 C58.617,22.904 58.563,23.142 58.367,23.265 C58.345,24.094 58.280,24.747 57.877,25.407 C57.884,25.742 57.830,25.981 57.837,26.316 C57.703,26.536 57.587,26.677 57.489,26.738 C57.485,27.488 57.519,28.079 57.454,28.732 C57.486,29.324 57.502,29.994 57.455,30.567 C57.397,31.142 57.393,31.727 57.242,32.280 C57.252,32.360 57.253,32.438 57.251,32.517 C57.302,32.522 57.346,32.518 57.358,32.464 C57.456,32.403 57.456,32.403 57.474,32.323 C57.492,32.244 57.528,32.085 57.546,32.006 C57.663,31.865 57.761,31.804 57.877,31.663 C58.019,31.778 57.903,31.919 57.867,32.078 C57.911,32.255 57.794,32.395 57.758,32.554 C57.765,32.845 57.650,33.174 57.609,33.526 C57.684,33.592 57.760,33.653 57.835,33.726 C57.863,33.736 57.900,33.922 57.942,34.180 C58.218,34.565 58.407,34.905 58.273,35.089 C58.156,35.229 58.262,35.503 58.226,35.662 C58.204,35.758 58.196,35.839 58.185,35.925 C58.201,36.109 58.217,36.286 58.234,36.478 L58.132,36.440 C58.172,36.456 58.212,36.563 58.250,36.695 L58.264,36.906 C58.414,37.156 58.534,37.390 58.547,37.569 C58.474,37.886 58.304,38.265 58.115,38.723 C58.112,38.734 58.086,38.763 58.076,38.778 C58.026,39.141 57.939,39.434 57.822,39.578 C57.866,39.595 57.954,39.627 57.951,39.844 C57.941,40.616 57.834,40.132 57.757,39.867 C57.738,39.940 57.727,40.012 57.708,40.084 C57.769,40.445 57.954,40.221 57.981,40.940 C57.892,40.907 57.798,41.304 57.713,41.056 C57.654,42.118 57.934,41.138 57.925,41.787 C57.836,41.753 57.792,41.737 57.704,41.704 C57.828,42.399 57.725,43.446 57.804,44.128 C57.861,44.926 57.929,45.614 57.947,46.228 C58.029,46.353 58.075,46.464 58.011,46.540 C57.986,46.575 57.964,46.597 57.940,46.629 C57.933,47.051 57.902,47.450 57.798,47.813 C57.790,47.877 57.778,47.911 57.766,47.955 C57.839,48.354 57.943,48.802 58.004,49.183 C58.056,49.351 57.649,49.656 57.523,49.883 C57.514,49.929 57.504,49.976 57.495,50.022 C57.506,50.068 57.538,50.109 57.624,50.133 C57.571,50.132 57.526,50.130 57.473,50.128 C57.404,50.465 57.334,50.792 57.266,51.084 C56.988,51.956 56.586,52.131 56.255,52.006 L56.200,52.034 C55.593,51.586 53.234,52.037 52.887,53.053 C52.373,53.045 51.870,53.252 51.369,53.373 C51.133,53.430 50.597,53.486 49.716,53.397 C48.849,53.303 50.577,53.052 49.127,52.307 C49.458,52.098 49.324,51.685 49.214,51.267 C49.197,51.185 49.175,51.101 49.157,51.018 C49.168,51.017 49.170,51.022 49.182,51.019 C49.694,50.792 49.733,50.423 49.730,49.980 C49.638,50.001 49.545,50.022 49.459,50.051 C49.442,49.784 49.427,49.491 49.490,49.214 C49.509,49.135 49.465,48.958 49.483,48.879 C49.387,48.191 49.471,47.459 49.474,46.709 C49.459,46.038 49.560,45.226 49.465,44.538 C49.476,44.123 49.647,43.745 49.479,43.373 C49.311,43.002 49.482,42.623 49.492,42.209 C49.547,41.970 49.521,41.715 49.496,41.459 C49.266,40.990 49.535,40.550 49.706,40.171 C49.760,39.933 49.735,39.677 49.709,39.421 C49.567,39.306 49.791,36.646 48.477,38.134 C48.304,38.029 45.707,37.807 44.503,37.698 C44.308,37.653 44.113,37.631 43.914,37.639 C43.910,37.639 43.900,37.638 43.898,37.637 C43.867,37.630 43.868,37.634 43.882,37.642 C43.830,37.645 43.780,37.660 43.729,37.666 C43.583,37.641 43.434,37.621 43.272,37.621 C42.953,37.621 42.675,37.682 42.422,37.773 C42.145,37.671 41.864,37.576 41.563,37.508 C41.062,38.230 40.979,38.962 40.717,39.737 C40.608,40.214 40.481,40.769 40.354,41.324 C40.326,41.818 39.135,45.256 39.186,45.768 C39.194,46.103 39.121,46.421 38.951,46.799 C38.816,47.019 38.744,47.336 38.627,47.477 C38.376,47.838 38.162,48.040 38.009,48.339 C37.660,48.762 37.409,49.122 37.123,49.641 C36.701,50.381 36.058,50.987 35.352,51.496 C35.174,51.540 34.916,51.565 34.738,51.608 C34.577,51.572 34.418,51.537 34.159,51.562 C34.025,51.782 33.810,51.984 33.676,52.204 C33.399,52.309 33.043,52.396 32.767,52.500 C32.010,52.497 31.308,52.256 30.588,52.094 C30.445,51.979 30.304,51.864 30.180,51.669 C30.118,51.572 29.903,51.774 29.780,51.579 C29.718,51.482 29.638,51.464 29.477,51.428 C29.495,51.349 29.514,51.269 29.532,51.190 C29.168,50.941 29.099,50.508 28.619,50.401 C28.531,50.048 28.443,49.694 28.436,49.359 C28.468,48.115 28.580,46.889 28.630,45.566 C28.880,45.205 30.027,41.590 30.172,40.956 C30.390,40.004 30.607,39.052 30.825,38.099 C30.916,37.703 31.025,37.227 31.276,36.866 C31.464,36.408 31.493,35.914 31.682,35.456 C31.773,35.059 31.765,34.724 31.998,34.443 C32.096,34.381 32.034,34.284 32.071,34.125 C32.440,32.874 32.730,31.604 33.021,30.335 C32.897,30.140 32.817,30.122 32.675,30.007 C33.238,29.383 33.099,28.518 33.521,27.778 C33.371,27.327 33.579,26.790 33.749,26.411 C33.822,26.094 33.894,25.777 34.047,25.477 C34.181,25.257 34.174,24.922 34.326,24.622 C34.399,24.305 34.392,23.970 34.642,23.609 C34.759,23.468 34.795,23.310 34.849,23.072 C34.904,22.834 34.976,22.516 35.110,22.296 C35.379,21.856 35.390,21.441 35.419,20.948 C35.517,20.886 35.615,20.825 35.713,20.763 C35.742,20.269 35.833,19.872 35.843,19.458 C35.684,19.422 35.585,19.483 35.345,19.429 C35.462,19.289 35.498,19.130 35.596,19.069 C35.632,18.910 35.650,18.831 35.686,18.672 C35.847,18.708 35.926,18.726 36.006,18.744 C36.614,18.296 36.715,17.485 37.162,17.002 C37.224,17.099 37.304,17.117 37.348,17.294 C37.519,16.915 37.751,16.633 37.922,16.255 C37.976,16.016 38.271,15.833 38.325,15.595 C38.380,15.356 38.496,15.216 38.612,15.075 C38.747,14.855 38.961,14.653 38.935,14.397 C39.034,14.336 39.132,14.274 39.230,14.213 C39.248,14.134 39.347,14.072 39.365,13.993 C39.714,13.571 39.742,13.077 40.011,12.637 C40.145,12.416 40.120,12.160 40.094,11.905 C40.210,11.764 40.345,11.544 40.480,11.324 C40.818,11.316 40.749,10.884 40.945,10.761 C41.141,10.638 41.275,10.418 41.490,10.216 C41.625,9.996 41.679,9.758 41.813,9.538 C42.162,9.116 42.591,8.712 43.002,8.387 C43.333,8.044 43.583,7.683 43.834,7.323 C44.441,6.875 45.172,6.622 45.638,6.059 C45.816,6.016 45.976,6.052 46.154,6.009 C46.092,5.911 46.092,5.911 46.110,5.832 C45.889,5.699 45.666,5.566 45.543,5.371 C46.317,5.295 47.190,5.157 48.143,5.038 C48.554,4.712 48.965,4.388 49.394,3.984 C50.373,4.120 51.253,4.318 52.043,4.912 C52.265,5.046 52.486,5.178 52.709,5.312 C52.850,5.427 53.090,5.481 53.313,5.615 C53.295,5.694 53.339,5.871 53.382,6.047 C53.702,6.119 54.004,6.270 54.324,6.342 C54.750,6.688 55.274,6.973 55.682,7.398 C56.108,7.744 56.515,8.169 57.021,8.533 C57.367,8.861 57.535,9.232 57.702,9.603 C58.154,10.205 58.445,10.771 58.799,11.434 C59.196,12.274 59.316,13.219 59.099,14.171 L59.001,14.232 ZM42.632,9.638 C43.087,9.490 43.337,9.129 43.588,8.769 C43.588,8.769 43.588,8.769 43.606,8.689 C43.071,8.820 42.820,9.180 42.632,9.638 ZM48.776,19.944 C48.720,18.346 48.486,16.792 48.590,15.231 C48.529,15.133 48.467,15.036 48.405,14.938 C47.950,15.087 47.761,15.545 47.529,15.826 C47.198,16.169 46.947,16.530 46.678,16.970 C46.652,16.714 46.707,16.476 46.699,16.141 C46.350,16.563 45.878,16.790 45.707,17.169 C45.616,17.566 45.544,17.883 45.489,18.121 C45.435,18.359 45.398,18.518 45.442,18.694 C45.476,19.286 45.287,19.744 45.258,20.237 C45.168,20.634 45.175,20.970 45.084,21.367 C44.797,21.886 44.499,22.820 44.453,23.393 C44.398,23.631 44.326,23.949 44.253,24.266 C44.046,24.803 43.857,25.261 43.891,25.853 C43.880,26.268 43.789,26.664 43.618,27.043 C43.215,27.703 43.212,28.453 42.969,29.149 C43.082,29.758 42.857,30.375 42.792,31.028 C42.774,31.107 42.836,31.205 42.879,31.381 C43.254,31.215 43.440,31.507 43.778,31.500 C44.196,31.510 44.677,31.618 45.157,31.726 C46.678,32.067 48.201,31.659 49.882,32.036 C49.887,30.059 49.882,32.036 49.875,31.701 C49.878,30.951 49.881,30.201 49.786,29.512 C49.694,28.074 49.602,26.635 49.492,25.276 C49.459,24.684 49.426,24.093 49.392,23.502 C49.210,22.460 49.090,21.515 48.809,20.535 C48.765,20.358 48.721,20.181 48.776,19.944 ZM50.689,4.942 C50.369,4.870 50.111,4.896 49.871,4.842 C49.809,4.744 49.747,4.647 49.605,4.531 C49.507,4.593 49.249,4.618 49.151,4.680 C48.972,4.723 48.794,4.766 48.820,5.022 C49.300,5.130 49.762,5.317 50.119,5.231 C50.377,5.205 50.501,5.400 50.697,5.277 C50.715,5.198 50.653,5.101 50.689,4.942 ZM57.189,33.170 C57.189,33.179 57.188,33.188 57.187,33.198 C57.203,33.208 57.218,33.220 57.234,33.231 C57.220,33.211 57.203,33.190 57.189,33.170 ZM57.624,50.133 C57.842,50.142 58.055,50.150 58.283,50.157 C57.937,50.186 57.748,50.169 57.624,50.133 ZM49.246,50.467 C49.213,50.539 49.174,50.605 49.145,50.681 C49.112,50.776 49.129,50.895 49.157,51.018 C48.808,51.071 49.047,50.726 49.246,50.467 ZM49.246,50.467 C49.281,50.391 49.311,50.309 49.353,50.240 C49.508,50.140 49.390,50.280 49.246,50.467 ZM29.379,51.490 C29.459,51.507 29.477,51.428 29.477,51.428 C29.477,51.428 29.477,51.428 29.459,51.507 C29.459,51.507 29.459,51.507 29.379,51.490 ZM29.299,51.472 C29.379,51.490 29.379,51.490 29.379,51.490 L29.361,51.569 C29.361,51.569 29.281,51.551 29.299,51.472 ZM7.880,35.457 C7.880,35.376 7.880,35.213 7.880,35.132 C7.962,35.132 7.962,35.132 7.962,35.132 C7.962,35.213 7.962,35.376 7.962,35.457 C7.962,35.457 7.962,35.457 7.880,35.457 ZM7.634,31.633 C7.799,31.552 7.880,31.552 7.962,31.552 C7.880,31.796 7.799,31.959 7.716,32.366 C7.634,32.040 7.634,31.796 7.634,31.633 ZM7.552,30.006 L7.634,29.925 L7.634,30.088 L7.552,30.006 ZM6.321,22.767 L6.403,22.685 L6.403,22.767 L6.321,22.767 ZM32.911,10.320 C32.501,10.889 32.172,11.540 31.844,12.191 C31.352,13.411 30.778,14.550 30.367,15.363 C30.203,16.259 30.203,16.828 30.039,17.397 C29.465,19.024 29.218,20.651 28.808,22.278 C28.561,23.336 28.479,24.475 28.315,25.614 C28.233,26.183 28.152,26.834 27.905,27.403 C27.741,27.810 27.741,28.217 27.659,28.624 C27.248,29.844 26.920,31.227 26.756,32.529 C26.510,34.562 26.017,36.514 25.853,38.548 C25.853,39.118 25.607,39.768 25.361,40.338 C25.033,41.151 24.540,41.965 24.212,42.778 C23.966,43.185 23.883,43.673 23.637,44.161 C23.473,44.649 23.227,45.056 22.981,45.463 C22.406,46.195 21.668,47.009 21.422,47.985 C20.930,48.229 20.847,48.717 20.601,49.205 C20.191,49.368 19.780,49.612 19.370,49.774 C19.042,50.263 18.713,50.832 18.221,51.239 C17.975,51.320 17.728,51.320 17.400,51.402 C17.236,51.564 17.072,51.646 16.908,51.808 C16.334,51.727 15.759,51.564 15.184,51.402 C15.267,51.157 15.431,50.995 15.513,50.751 C15.431,50.751 15.184,50.751 15.184,50.832 C15.021,51.076 14.856,51.320 14.692,51.646 C14.610,51.646 14.528,51.646 14.364,51.646 C14.364,51.727 14.282,51.890 14.200,51.971 C13.954,51.808 13.625,51.646 13.379,51.483 C12.722,51.320 11.984,51.157 11.245,51.076 C10.999,50.914 10.752,50.751 10.506,50.507 C10.343,50.263 10.343,50.100 10.506,49.774 C10.589,49.449 10.671,49.043 10.671,48.636 C10.589,47.985 10.506,47.416 10.425,46.765 C10.343,46.114 10.014,45.626 9.850,44.975 C9.686,44.405 9.604,43.755 9.439,43.022 C9.522,42.616 9.686,42.046 9.439,41.477 C9.193,40.826 9.276,40.826 9.358,40.012 C9.193,39.606 9.029,39.199 8.783,38.630 C8.783,38.304 8.783,37.735 8.701,37.165 C8.701,37.084 8.701,36.921 8.701,36.758 C8.701,36.352 8.291,36.108 8.373,35.620 C8.373,35.294 8.291,34.887 8.291,34.562 C8.126,34.481 8.045,34.481 7.880,34.399 C7.962,33.993 7.962,33.586 8.045,33.098 C8.126,33.260 8.209,33.342 8.209,33.423 C8.291,33.586 8.291,33.667 8.455,33.993 C8.455,33.423 8.537,33.016 8.537,32.610 C8.701,32.610 8.783,32.610 8.865,32.610 C9.193,32.935 8.947,33.260 8.865,33.586 C8.947,33.911 9.029,34.155 9.112,34.481 C9.112,34.806 9.193,35.132 9.112,35.457 C9.112,35.783 9.029,36.026 9.029,36.433 C9.193,36.921 9.276,37.572 9.604,38.141 C9.768,38.548 9.768,39.037 9.604,39.281 C9.686,39.850 9.686,40.257 9.768,40.663 C9.850,41.151 9.850,41.721 9.932,42.291 C9.932,42.372 10.014,42.372 10.178,42.453 C10.096,41.314 10.014,40.175 10.014,39.037 C9.932,37.654 9.850,36.189 9.768,34.806 C9.768,33.830 9.358,33.016 9.112,32.122 C9.112,31.796 9.276,31.552 9.193,31.308 C8.619,29.681 8.373,27.891 7.552,26.264 C7.470,25.288 7.388,24.312 7.388,23.336 C7.224,23.173 7.060,23.091 6.895,22.929 C6.813,22.685 6.732,22.360 6.649,22.116 C6.486,22.034 6.403,21.953 6.239,21.871 C6.321,21.384 6.321,20.977 6.321,20.488 C6.321,19.919 6.321,19.350 6.239,18.862 C6.157,18.373 6.239,17.885 5.993,17.397 C5.829,16.990 5.829,16.421 5.665,15.933 C5.747,15.852 5.829,15.770 5.911,15.689 C5.911,14.957 5.747,14.225 5.418,13.492 C5.829,12.109 5.500,10.808 5.008,9.425 C4.926,9.506 4.844,9.506 4.680,9.588 C4.598,9.262 4.598,8.855 4.516,8.530 C4.434,8.367 4.269,8.286 4.105,8.204 C4.105,7.879 4.187,7.554 4.105,7.310 C4.023,6.984 3.859,6.740 3.613,6.334 C3.613,6.252 3.613,6.008 3.530,5.601 C3.449,5.439 3.284,5.195 3.121,4.869 C3.038,4.951 2.956,4.951 2.874,4.951 C2.628,4.463 2.382,3.974 1.725,3.974 C1.479,3.730 1.233,3.486 1.069,3.242 C1.069,2.998 1.151,2.754 1.151,2.510 C1.315,2.510 1.479,2.592 1.643,2.592 C1.643,2.347 1.725,2.022 1.807,1.778 C1.807,1.615 1.561,1.453 1.725,1.209 C1.807,1.127 1.890,1.046 1.971,1.127 C2.628,1.453 3.284,1.290 3.941,1.453 C4.680,1.534 5.418,1.696 6.075,1.859 C7.306,2.266 8.619,2.673 9.768,3.324 C10.343,3.649 10.917,4.137 11.327,4.788 C11.491,4.788 11.656,4.869 11.902,4.869 C12.230,5.276 12.558,5.683 12.887,6.171 C13.051,6.008 13.215,5.846 13.379,5.683 C13.543,6.008 13.708,6.415 13.954,6.903 C14.117,6.984 14.364,7.147 14.774,7.310 C14.856,7.472 15.021,7.798 15.184,8.042 C15.513,8.449 15.841,8.937 15.923,9.506 C16.005,9.831 16.251,10.238 16.498,10.645 C16.498,10.971 16.580,11.377 16.580,11.784 C16.826,11.865 17.072,11.947 17.236,12.028 C17.236,12.109 17.236,12.272 17.154,12.435 C17.318,12.598 17.482,12.842 17.647,13.086 C17.647,13.167 17.647,13.329 17.647,13.411 C17.482,14.631 17.565,15.770 17.647,16.909 C17.647,17.966 17.811,19.024 17.893,20.082 C17.893,20.407 17.893,20.814 17.811,21.221 C17.647,21.871 17.728,22.522 17.728,23.173 C17.647,23.254 17.482,23.336 17.318,23.498 C17.318,23.580 17.318,23.824 17.236,24.068 C17.236,24.231 17.154,24.393 17.154,24.556 C17.236,24.800 17.400,24.963 17.565,25.207 C17.728,24.881 17.893,24.556 18.057,24.312 C18.139,22.116 18.303,20.082 17.975,18.048 C18.139,17.966 18.221,17.885 18.221,17.804 C18.303,17.804 18.303,17.804 18.385,17.804 C18.549,17.966 18.631,18.048 18.713,18.211 C18.795,18.211 18.878,18.129 19.042,18.129 C19.042,18.211 19.124,18.373 19.124,18.455 C19.042,18.780 18.960,19.106 18.960,19.350 C19.042,20.977 18.713,22.522 18.878,23.987 C18.713,24.800 18.467,25.451 18.303,26.183 C18.303,26.346 18.221,26.427 18.221,26.590 C18.385,27.078 18.057,27.566 18.221,28.054 C18.221,28.298 18.057,28.542 18.221,28.786 C18.303,28.949 18.385,29.030 18.549,29.193 C18.631,29.030 18.631,28.949 18.631,28.868 C18.713,27.973 19.042,27.078 19.206,26.183 C19.370,25.288 19.616,24.475 19.698,23.580 C19.780,23.417 19.698,23.173 19.698,23.091 C19.944,22.360 20.191,21.627 20.355,20.977 C20.519,20.407 20.683,19.756 20.930,19.187 C20.930,18.943 21.011,18.699 21.093,18.536 C21.257,17.560 21.504,16.583 22.078,15.689 C22.160,15.608 22.243,15.363 22.243,15.201 C22.243,14.875 22.324,14.469 22.570,14.225 C22.817,13.818 22.653,13.411 22.735,13.004 C22.899,13.004 22.981,13.004 23.145,13.004 C23.227,12.760 23.309,12.516 23.473,12.272 C23.473,12.028 23.473,11.784 23.473,11.540 C23.637,11.459 23.720,11.296 23.802,11.052 C23.966,10.645 24.130,10.157 24.294,9.669 C24.294,9.588 24.212,9.506 24.212,9.344 C24.869,8.367 25.361,7.147 25.689,6.090 C25.853,5.846 25.935,5.764 26.017,5.601 C25.935,5.520 25.853,5.520 25.771,5.439 C26.264,4.137 27.166,2.998 27.248,1.534 C27.987,1.127 28.398,0.232 29.300,-0.011 C29.628,0.069 29.382,0.232 29.382,0.395 C29.711,0.883 30.039,1.534 30.039,2.185 C30.367,2.510 30.778,2.592 31.188,2.592 C31.270,2.754 31.434,2.917 31.598,3.080 C31.762,3.080 32.009,3.080 32.255,3.080 C32.583,3.324 32.911,3.486 33.239,3.730 C33.322,3.730 33.404,3.649 33.568,3.649 C33.978,4.218 34.224,4.951 34.799,5.357 C34.881,5.846 34.881,6.252 34.881,6.659 C34.553,7.554 34.306,8.367 33.568,8.937 C33.486,9.425 33.239,9.913 32.911,10.320 ZM8.701,34.237 L8.619,34.318 L8.701,34.318 L8.701,34.237 ZM10.178,42.535 C10.178,42.697 10.260,42.860 10.260,43.022 C10.425,42.778 10.425,42.616 10.178,42.535 ZM16.826,27.810 C16.908,27.566 16.990,27.241 16.744,26.915 C16.744,27.241 16.744,27.566 16.826,27.810 ZM16.334,25.451 C16.415,25.125 16.580,24.800 16.334,24.475 C16.334,24.881 16.334,25.125 16.334,25.451 ZM16.826,18.780 C16.744,18.862 16.661,18.862 16.498,18.943 C16.334,18.292 16.415,17.560 16.169,16.746 C16.169,17.072 16.087,17.153 16.087,17.316 C16.169,18.211 16.169,19.187 16.251,20.082 C16.005,20.244 15.923,20.407 16.169,20.570 C16.334,20.407 16.251,20.244 16.251,20.082 C16.415,20.163 16.498,20.244 16.661,20.326 C17.072,19.350 17.072,19.350 16.826,18.780 ZM26.182,5.439 C26.182,5.439 26.100,5.520 26.100,5.601 C26.182,5.601 26.264,5.520 26.182,5.439 ZM23.391,11.459 C23.391,11.459 23.473,11.459 23.473,11.540 C23.391,11.540 23.391,11.540 23.391,11.540 L23.391,11.459 ZM23.309,10.971 C23.309,11.215 23.309,11.296 23.391,11.459 C23.145,11.377 23.145,11.296 23.309,10.971 ZM22.981,12.191 C22.981,12.109 22.981,12.028 22.981,11.947 C22.981,11.947 22.981,11.947 23.063,11.865 C23.063,11.947 23.063,12.028 23.145,12.109 L23.063,12.191 L22.981,12.191 ZM18.139,16.909 C17.975,16.746 18.139,16.746 18.221,16.746 C18.139,16.828 18.139,16.828 18.139,16.909 ZM18.221,16.665 C18.139,16.340 18.057,16.014 17.893,15.608 C18.139,15.770 18.303,15.933 18.385,16.014 C18.467,16.259 18.549,16.502 18.221,16.665 ZM0.002,1.534 C0.166,1.534 0.330,1.453 0.330,1.534 C0.658,1.696 0.904,1.859 1.069,2.022 C1.151,2.185 1.151,2.347 1.151,2.429 C0.740,2.185 0.412,1.941 0.084,1.696 C0.084,1.696 0.084,1.615 0.002,1.534 Z" class="cls-1"/>
</svg>
