<svg xmlns="http://www.w3.org/2000/svg" xmlns:xlink="http://www.w3.org/1999/xlink" preserveAspectRatio="xMidYMid" width="43.753" height="45.5" viewBox="0 0 67.312 70">
  <defs>
    <style>
      .cls-1 {
        fill: #fff;
        fill-rule: evenodd;
      }
    </style>
  </defs>
  <path d="M66.367,68.432 C66.090,68.613 65.779,68.600 65.431,68.805 C65.165,68.767 64.898,68.729 64.634,68.694 C59.740,68.158 54.846,68.336 49.409,67.979 C45.603,67.621 41.253,67.800 37.448,67.800 C46.468,68.129 55.948,68.005 64.615,69.243 C63.739,69.665 62.449,70.002 61.230,70.002 C58.297,69.836 55.295,69.719 52.289,69.639 C52.289,69.638 52.289,69.636 52.289,69.635 C44.435,69.427 36.741,69.464 28.935,69.518 C28.927,69.510 28.926,69.502 28.921,69.494 C28.922,69.501 28.926,69.511 28.927,69.518 C24.427,69.549 19.899,69.584 15.257,69.584 C14.714,69.584 13.626,69.584 13.082,69.584 C10.908,69.584 8.696,68.898 6.523,68.898 C7.065,68.004 5.198,66.246 9.206,66.604 C9.206,66.425 9.206,66.067 9.206,65.888 C5.198,64.994 3.259,62.489 7.610,61.774 C12.503,61.059 19.046,61.774 25.025,61.416 C29.376,61.238 33.735,61.059 38.084,61.416 C44.064,61.953 50.594,61.774 56.574,62.489 C58.750,62.668 62.559,62.132 63.646,62.668 C64.427,62.925 64.460,63.306 64.340,63.731 C60.765,63.668 57.202,63.648 53.678,63.570 C57.194,63.733 60.713,64.100 64.229,64.292 C64.100,64.657 63.977,64.615 64.191,65.609 C64.191,65.609 65.278,65.609 65.822,65.609 C67.998,65.609 67.453,67.537 66.367,68.432 ZM28.607,69.078 C28.770,69.131 28.858,69.280 28.898,69.404 C28.901,69.389 28.900,69.374 28.908,69.360 C36.878,69.187 44.336,69.291 52.289,69.632 C52.289,69.450 52.289,69.104 52.289,68.929 C44.274,69.466 36.763,68.183 28.607,69.078 ZM53.677,63.570 C49.354,63.370 45.031,63.147 40.710,62.791 C44.936,63.282 49.275,63.473 53.677,63.570 ZM29.394,69.615 C28.887,69.615 28.853,69.584 28.908,69.584 C28.923,69.584 28.929,69.558 28.927,69.518 C28.930,69.518 28.932,69.518 28.935,69.518 C28.997,69.572 29.128,69.615 29.394,69.615 ZM59.001,14.242 C59.186,14.534 58.936,14.895 59.023,15.248 C59.067,15.425 59.030,15.584 58.976,15.822 C58.751,16.439 58.828,17.207 58.665,17.922 C58.708,18.098 58.734,18.354 58.680,18.593 C58.746,19.776 58.812,20.960 58.540,22.150 C58.584,22.327 58.628,22.504 58.591,22.662 C58.617,22.919 58.563,23.157 58.367,23.279 C58.345,24.110 58.280,24.762 57.877,25.423 C57.884,25.758 57.830,25.997 57.837,26.332 C57.703,26.552 57.587,26.693 57.489,26.754 C57.485,27.505 57.519,28.096 57.454,28.750 C57.486,29.342 57.502,30.013 57.455,30.586 C57.397,31.161 57.393,31.747 57.242,32.300 C57.252,32.380 57.253,32.458 57.251,32.537 C57.302,32.542 57.346,32.538 57.358,32.484 C57.456,32.422 57.456,32.422 57.474,32.343 C57.492,32.264 57.528,32.105 57.546,32.026 C57.663,31.885 57.761,31.823 57.877,31.683 C58.019,31.798 57.903,31.939 57.867,32.098 C57.911,32.274 57.794,32.415 57.758,32.574 C57.765,32.865 57.650,33.195 57.609,33.546 C57.684,33.612 57.760,33.674 57.835,33.746 C57.863,33.756 57.900,33.942 57.942,34.201 C58.218,34.586 58.407,34.927 58.273,35.110 C58.156,35.250 58.262,35.525 58.226,35.683 C58.204,35.780 58.196,35.861 58.185,35.946 C58.201,36.131 58.217,36.308 58.234,36.500 L58.132,36.462 C58.172,36.478 58.212,36.585 58.250,36.718 L58.263,36.915 C58.420,37.172 58.534,37.407 58.547,37.592 C58.474,37.909 58.304,38.288 58.115,38.747 C58.112,38.758 58.086,38.786 58.076,38.802 C58.026,39.164 57.939,39.458 57.822,39.602 C57.866,39.619 57.954,39.651 57.951,39.868 C57.941,40.641 57.834,40.157 57.757,39.891 C57.738,39.964 57.727,40.036 57.708,40.109 C57.769,40.470 57.954,40.246 57.981,40.965 C57.892,40.932 57.798,41.329 57.713,41.081 C57.654,42.144 57.934,41.162 57.925,41.812 C57.836,41.778 57.792,41.762 57.704,41.729 C57.828,42.425 57.725,43.472 57.804,44.155 C57.861,44.953 57.929,45.641 57.947,46.256 C58.029,46.381 58.075,46.491 58.011,46.568 C57.986,46.603 57.964,46.625 57.940,46.657 C57.933,47.079 57.902,47.478 57.798,47.842 C57.790,47.905 57.778,47.940 57.766,47.983 C57.839,48.382 57.943,48.831 58.004,49.212 C58.056,49.380 57.649,49.686 57.523,49.913 C57.514,49.959 57.504,50.006 57.495,50.052 C57.506,50.098 57.538,50.138 57.624,50.163 C57.572,50.161 57.525,50.159 57.473,50.158 C57.404,50.495 57.334,50.822 57.266,51.114 C56.988,51.986 56.586,52.162 56.255,52.037 L56.200,52.065 C55.593,51.617 53.234,52.068 52.887,53.085 C52.373,53.076 51.870,53.283 51.369,53.405 C51.133,53.462 50.597,53.518 49.716,53.429 C48.849,53.335 50.577,53.084 49.127,52.338 C49.458,52.129 49.324,51.716 49.214,51.297 C49.197,51.216 49.175,51.131 49.157,51.049 C49.168,51.047 49.170,51.052 49.182,51.049 C49.694,50.822 49.733,50.453 49.730,50.010 C49.638,50.031 49.545,50.051 49.459,50.081 C49.442,49.814 49.427,49.521 49.490,49.244 C49.509,49.165 49.465,48.988 49.483,48.909 C49.387,48.220 49.471,47.487 49.474,46.736 C49.459,46.065 49.560,45.253 49.465,44.564 C49.476,44.150 49.647,43.771 49.479,43.399 C49.311,43.028 49.482,42.649 49.492,42.234 C49.547,41.996 49.521,41.740 49.496,41.484 C49.266,41.015 49.535,40.574 49.706,40.195 C49.760,39.957 49.735,39.701 49.709,39.445 C49.567,39.329 49.791,36.668 48.477,38.157 C48.304,38.052 45.707,37.830 44.503,37.720 C44.308,37.675 44.113,37.654 43.914,37.662 C43.910,37.661 43.900,37.660 43.898,37.660 C43.867,37.653 43.868,37.657 43.882,37.665 C43.830,37.668 43.780,37.683 43.729,37.688 C43.583,37.663 43.434,37.643 43.272,37.643 C42.953,37.643 42.675,37.704 42.422,37.796 C42.145,37.694 41.864,37.598 41.563,37.531 C41.062,38.253 40.979,38.986 40.717,39.761 C40.608,40.238 40.481,40.793 40.354,41.349 C40.326,41.843 39.135,45.283 39.186,45.795 C39.194,46.130 39.121,46.448 38.951,46.827 C38.816,47.047 38.744,47.365 38.627,47.505 C38.376,47.866 38.162,48.069 38.009,48.368 C37.660,48.791 37.409,49.151 37.123,49.671 C36.701,50.411 36.058,51.018 35.352,51.527 C35.174,51.571 34.916,51.595 34.738,51.639 C34.577,51.603 34.418,51.567 34.159,51.593 C34.025,51.813 33.810,52.015 33.676,52.235 C33.399,52.340 33.043,52.427 32.767,52.531 C32.010,52.528 31.308,52.287 30.588,52.125 C30.445,52.010 30.304,51.894 30.180,51.700 C30.118,51.602 29.903,51.805 29.780,51.610 C29.718,51.513 29.638,51.495 29.477,51.459 C29.495,51.379 29.514,51.299 29.532,51.220 C29.168,50.972 29.099,50.539 28.619,50.431 C28.531,50.078 28.443,49.724 28.436,49.389 C28.468,48.144 28.580,46.917 28.630,45.593 C28.880,45.232 30.027,41.615 30.172,40.980 C30.390,40.028 30.607,39.075 30.825,38.122 C30.916,37.725 31.025,37.249 31.276,36.888 C31.464,36.430 31.493,35.936 31.682,35.478 C31.773,35.081 31.765,34.745 31.998,34.463 C32.096,34.402 32.034,34.305 32.071,34.146 C32.440,32.894 32.730,31.624 33.021,30.353 C32.897,30.159 32.817,30.141 32.675,30.025 C33.238,29.401 33.099,28.535 33.521,27.795 C33.371,27.344 33.579,26.807 33.749,26.428 C33.822,26.110 33.894,25.793 34.047,25.493 C34.181,25.273 34.174,24.937 34.326,24.638 C34.399,24.320 34.392,23.985 34.642,23.624 C34.759,23.483 34.795,23.324 34.849,23.086 C34.904,22.848 34.976,22.531 35.110,22.310 C35.379,21.870 35.390,21.455 35.419,20.961 C35.517,20.899 35.615,20.838 35.713,20.776 C35.742,20.282 35.833,19.885 35.843,19.470 C35.684,19.434 35.585,19.496 35.345,19.442 C35.462,19.301 35.498,19.142 35.596,19.081 C35.632,18.922 35.650,18.843 35.686,18.684 C35.847,18.720 35.926,18.738 36.006,18.756 C36.614,18.308 36.715,17.496 37.162,17.013 C37.224,17.110 37.304,17.128 37.348,17.305 C37.519,16.926 37.751,16.644 37.922,16.265 C37.976,16.027 38.271,15.843 38.325,15.605 C38.380,15.366 38.496,15.226 38.612,15.085 C38.747,14.865 38.961,14.663 38.935,14.407 C39.034,14.345 39.132,14.284 39.230,14.222 C39.248,14.143 39.347,14.082 39.365,14.002 C39.714,13.580 39.742,13.085 40.011,12.645 C40.145,12.425 40.120,12.169 40.094,11.913 C40.210,11.772 40.345,11.552 40.480,11.332 C40.818,11.324 40.749,10.892 40.945,10.768 C41.141,10.645 41.275,10.425 41.490,10.223 C41.625,10.003 41.679,9.765 41.813,9.545 C42.162,9.122 42.591,8.718 43.002,8.393 C43.333,8.050 43.583,7.689 43.834,7.328 C44.441,6.880 45.172,6.627 45.638,6.064 C45.816,6.021 45.976,6.057 46.154,6.014 C46.092,5.916 46.092,5.916 46.110,5.837 C45.889,5.703 45.666,5.570 45.543,5.375 C46.317,5.299 47.190,5.161 48.143,5.042 C48.554,4.716 48.965,4.391 49.394,3.987 C50.373,4.124 51.253,4.321 52.043,4.916 C52.265,5.050 52.486,5.183 52.709,5.316 C52.850,5.432 53.090,5.486 53.313,5.619 C53.295,5.699 53.339,5.875 53.382,6.052 C53.702,6.123 54.004,6.275 54.324,6.347 C54.750,6.693 55.274,6.978 55.682,7.403 C56.108,7.749 56.515,8.175 57.021,8.539 C57.367,8.867 57.535,9.239 57.702,9.610 C58.154,10.212 58.445,10.778 58.799,11.442 C59.196,12.282 59.316,13.228 59.099,14.180 L59.001,14.242 ZM42.632,9.645 C43.087,9.497 43.337,9.136 43.588,8.775 C43.588,8.775 43.588,8.775 43.606,8.696 C43.071,8.826 42.820,9.187 42.632,9.645 ZM48.776,19.956 C48.720,18.358 48.486,16.803 48.590,15.241 C48.529,15.143 48.467,15.046 48.405,14.948 C47.950,15.097 47.761,15.555 47.529,15.837 C47.198,16.180 46.947,16.541 46.678,16.981 C46.652,16.725 46.707,16.487 46.699,16.151 C46.350,16.573 45.878,16.801 45.707,17.180 C45.616,17.577 45.544,17.894 45.489,18.133 C45.435,18.371 45.398,18.530 45.442,18.706 C45.476,19.298 45.287,19.756 45.258,20.250 C45.168,20.647 45.175,20.983 45.084,21.380 C44.797,21.900 44.499,22.834 44.453,23.408 C44.398,23.646 44.326,23.964 44.253,24.281 C44.046,24.819 43.857,25.277 43.891,25.869 C43.880,26.284 43.789,26.681 43.618,27.060 C43.215,27.720 43.212,28.470 42.969,29.167 C43.082,29.777 42.857,30.394 42.792,31.047 C42.774,31.126 42.836,31.224 42.879,31.401 C43.254,31.234 43.440,31.527 43.778,31.519 C44.196,31.529 44.677,31.637 45.157,31.745 C46.678,32.087 48.201,31.678 49.882,32.056 C49.887,30.077 49.882,32.056 49.875,31.720 C49.878,30.970 49.881,30.220 49.786,29.531 C49.694,28.091 49.602,26.651 49.492,25.291 C49.459,24.700 49.426,24.108 49.392,23.517 C49.210,22.474 49.090,21.529 48.809,20.548 C48.765,20.371 48.721,20.194 48.776,19.956 ZM50.689,4.946 C50.369,4.874 50.111,4.900 49.871,4.846 C49.809,4.748 49.747,4.651 49.605,4.535 C49.507,4.597 49.249,4.622 49.151,4.684 C48.972,4.727 48.794,4.771 48.820,5.026 C49.300,5.134 49.762,5.322 50.119,5.235 C50.377,5.210 50.501,5.404 50.697,5.282 C50.715,5.202 50.653,5.105 50.689,4.946 ZM57.189,33.190 C57.189,33.200 57.188,33.209 57.187,33.218 C57.203,33.228 57.218,33.240 57.234,33.251 C57.220,33.231 57.203,33.210 57.189,33.190 ZM57.624,50.163 C57.842,50.171 58.055,50.179 58.283,50.187 C57.937,50.216 57.748,50.199 57.624,50.163 ZM49.246,50.497 C49.213,50.569 49.174,50.635 49.145,50.711 C49.112,50.807 49.129,50.925 49.157,51.049 C48.808,51.101 49.047,50.757 49.246,50.497 ZM49.246,50.497 C49.281,50.421 49.311,50.339 49.353,50.270 C49.508,50.170 49.390,50.310 49.246,50.497 ZM29.379,51.520 C29.459,51.538 29.477,51.459 29.477,51.459 C29.477,51.459 29.477,51.459 29.459,51.538 C29.459,51.538 29.459,51.538 29.379,51.520 ZM29.299,51.502 C29.379,51.520 29.379,51.520 29.379,51.520 L29.361,51.600 C29.361,51.600 29.281,51.582 29.299,51.502 ZM7.880,35.478 C7.880,35.397 7.880,35.234 7.880,35.153 C7.962,35.153 7.962,35.153 7.962,35.153 C7.962,35.234 7.962,35.397 7.962,35.478 C7.962,35.478 7.962,35.478 7.880,35.478 ZM7.634,31.653 C7.799,31.571 7.880,31.571 7.962,31.571 C7.880,31.816 7.799,31.978 7.716,32.385 C7.634,32.060 7.634,31.816 7.634,31.653 ZM7.552,30.025 L7.634,29.944 L7.634,30.106 L7.552,30.025 ZM6.321,22.781 L6.403,22.699 L6.403,22.781 L6.321,22.781 ZM33.568,8.943 C33.486,9.431 33.239,9.920 32.911,10.327 C32.501,10.897 32.172,11.548 31.844,12.199 C31.352,13.420 30.778,14.560 30.367,15.373 C30.203,16.269 30.203,16.839 30.039,17.408 C29.465,19.036 29.218,20.664 28.808,22.292 C28.561,23.350 28.479,24.490 28.315,25.630 C28.233,26.199 28.152,26.850 27.905,27.420 C27.741,27.827 27.741,28.234 27.659,28.641 C27.248,29.862 26.920,31.246 26.756,32.548 C26.510,34.583 26.017,36.536 25.853,38.572 C25.853,39.141 25.607,39.792 25.361,40.362 C25.033,41.176 24.540,41.990 24.212,42.804 C23.966,43.211 23.883,43.699 23.637,44.188 C23.473,44.676 23.227,45.083 22.981,45.490 C22.406,46.223 21.668,47.037 21.422,48.013 C20.930,48.258 20.847,48.746 20.601,49.234 C20.191,49.397 19.780,49.641 19.370,49.804 C19.042,50.293 18.713,50.862 18.221,51.269 C17.975,51.351 17.728,51.351 17.400,51.432 C17.236,51.595 17.072,51.676 16.908,51.839 C16.334,51.757 15.759,51.595 15.184,51.432 C15.267,51.188 15.431,51.025 15.513,50.781 C15.431,50.781 15.184,50.781 15.184,50.862 C15.021,51.106 14.856,51.351 14.692,51.676 C14.610,51.676 14.528,51.676 14.364,51.676 C14.364,51.757 14.282,51.921 14.200,52.002 C13.954,51.839 13.625,51.676 13.379,51.513 C12.722,51.351 11.984,51.188 11.245,51.106 C10.999,50.944 10.752,50.781 10.506,50.537 C10.343,50.293 10.343,50.130 10.506,49.804 C10.589,49.479 10.671,49.072 10.671,48.665 C10.589,48.013 10.506,47.444 10.425,46.793 C10.343,46.142 10.014,45.653 9.850,45.002 C9.686,44.432 9.604,43.781 9.439,43.048 C9.522,42.641 9.686,42.071 9.439,41.502 C9.193,40.851 9.276,40.851 9.358,40.036 C9.193,39.630 9.029,39.223 8.783,38.653 C8.783,38.327 8.783,37.758 8.701,37.188 C8.701,37.107 8.701,36.944 8.701,36.780 C8.701,36.374 8.291,36.129 8.373,35.641 C8.373,35.316 8.291,34.908 8.291,34.583 C8.126,34.502 8.045,34.502 7.880,34.420 C7.962,34.013 7.962,33.606 8.045,33.118 C8.126,33.281 8.209,33.362 8.209,33.444 C8.291,33.606 8.291,33.688 8.455,34.013 C8.455,33.444 8.537,33.037 8.537,32.629 C8.701,32.629 8.783,32.629 8.865,32.629 C9.193,32.955 8.947,33.281 8.865,33.606 C8.947,33.932 9.029,34.176 9.112,34.502 C9.112,34.827 9.193,35.153 9.112,35.478 C9.112,35.804 9.029,36.048 9.029,36.455 C9.193,36.944 9.276,37.595 9.604,38.164 C9.768,38.572 9.768,39.060 9.604,39.304 C9.686,39.874 9.686,40.281 9.768,40.688 C9.850,41.176 9.850,41.746 9.932,42.316 C9.932,42.397 10.014,42.397 10.178,42.479 C10.096,41.339 10.014,40.199 10.014,39.060 C9.932,37.676 9.850,36.211 9.768,34.827 C9.768,33.851 9.358,33.037 9.112,32.141 C9.112,31.816 9.276,31.571 9.193,31.327 C8.619,29.699 8.373,27.909 7.552,26.281 C7.470,25.304 7.388,24.327 7.388,23.350 C7.224,23.187 7.060,23.106 6.895,22.943 C6.813,22.699 6.732,22.374 6.649,22.130 C6.486,22.048 6.403,21.967 6.239,21.885 C6.321,21.397 6.321,20.990 6.321,20.501 C6.321,19.932 6.321,19.362 6.239,18.874 C6.157,18.385 6.239,17.897 5.993,17.408 C5.829,17.001 5.829,16.432 5.665,15.943 C5.747,15.862 5.829,15.780 5.911,15.699 C5.911,14.967 5.747,14.234 5.418,13.501 C5.829,12.118 5.500,10.815 5.008,9.431 C4.926,9.513 4.844,9.513 4.680,9.594 C4.598,9.269 4.598,8.862 4.516,8.536 C4.434,8.374 4.269,8.292 4.105,8.210 C4.105,7.885 4.187,7.559 4.105,7.315 C4.023,6.990 3.859,6.746 3.613,6.338 C3.613,6.257 3.613,6.013 3.530,5.606 C3.449,5.443 3.284,5.199 3.121,4.873 C3.038,4.955 2.956,4.955 2.874,4.955 C2.628,4.467 2.382,3.978 1.725,3.978 C1.479,3.734 1.233,3.490 1.069,3.246 C1.069,3.001 1.151,2.757 1.151,2.513 C1.315,2.513 1.479,2.595 1.643,2.595 C1.643,2.350 1.725,2.024 1.807,1.780 C1.807,1.617 1.561,1.455 1.725,1.211 C1.807,1.129 1.890,1.048 1.971,1.129 C2.628,1.455 3.284,1.292 3.941,1.455 C4.680,1.536 5.418,1.699 6.075,1.862 C7.306,2.268 8.619,2.676 9.768,3.327 C10.343,3.652 10.917,4.141 11.327,4.792 C11.491,4.792 11.656,4.873 11.902,4.873 C12.230,5.280 12.558,5.687 12.887,6.175 C13.051,6.013 13.215,5.850 13.379,5.687 C13.543,6.013 13.708,6.420 13.954,6.908 C14.117,6.990 14.364,7.153 14.774,7.315 C14.856,7.478 15.021,7.804 15.184,8.048 C15.513,8.455 15.841,8.943 15.923,9.513 C16.005,9.838 16.251,10.246 16.498,10.653 C16.498,10.978 16.580,11.385 16.580,11.792 C16.826,11.873 17.072,11.955 17.236,12.036 C17.236,12.118 17.236,12.281 17.154,12.443 C17.318,12.606 17.482,12.850 17.647,13.094 C17.647,13.176 17.647,13.338 17.647,13.420 C17.482,14.641 17.565,15.780 17.647,16.920 C17.647,17.978 17.811,19.036 17.893,20.095 C17.893,20.420 17.893,20.827 17.811,21.234 C17.647,21.885 17.728,22.536 17.728,23.187 C17.647,23.269 17.482,23.350 17.318,23.513 C17.318,23.595 17.318,23.839 17.236,24.083 C17.236,24.246 17.154,24.408 17.154,24.571 C17.236,24.815 17.400,24.978 17.565,25.222 C17.728,24.897 17.893,24.571 18.057,24.327 C18.139,22.130 18.303,20.095 17.975,18.060 C18.139,17.978 18.221,17.897 18.221,17.816 C18.303,17.816 18.303,17.816 18.385,17.816 C18.549,17.978 18.631,18.060 18.713,18.223 C18.795,18.223 18.878,18.141 19.042,18.141 C19.042,18.223 19.124,18.385 19.124,18.467 C19.042,18.792 18.960,19.118 18.960,19.362 C19.042,20.990 18.713,22.536 18.878,24.002 C18.713,24.815 18.467,25.467 18.303,26.199 C18.303,26.362 18.221,26.443 18.221,26.606 C18.385,27.095 18.057,27.583 18.221,28.071 C18.221,28.315 18.057,28.560 18.221,28.804 C18.303,28.967 18.385,29.048 18.549,29.211 C18.631,29.048 18.631,28.967 18.631,28.885 C18.713,27.990 19.042,27.095 19.206,26.199 C19.370,25.304 19.616,24.490 19.698,23.595 C19.780,23.432 19.698,23.187 19.698,23.106 C19.944,22.374 20.191,21.641 20.355,20.990 C20.519,20.420 20.683,19.769 20.930,19.199 C20.930,18.955 21.011,18.711 21.093,18.548 C21.257,17.571 21.504,16.594 22.078,15.699 C22.160,15.618 22.243,15.373 22.243,15.211 C22.243,14.885 22.324,14.478 22.570,14.234 C22.817,13.827 22.653,13.420 22.735,13.013 C22.899,13.013 22.981,13.013 23.145,13.013 C23.227,12.769 23.309,12.525 23.473,12.281 C23.473,12.036 23.473,11.792 23.473,11.548 C23.637,11.466 23.720,11.304 23.802,11.060 C23.966,10.653 24.130,10.164 24.294,9.676 C24.294,9.594 24.212,9.513 24.212,9.350 C24.869,8.374 25.361,7.153 25.689,6.094 C25.853,5.850 25.935,5.769 26.017,5.606 C25.935,5.524 25.853,5.524 25.771,5.443 C26.264,4.141 27.166,3.001 27.248,1.536 C27.987,1.129 28.398,0.234 29.300,-0.010 C29.628,0.071 29.382,0.234 29.382,0.396 C29.711,0.885 30.039,1.536 30.039,2.187 C30.367,2.513 30.778,2.595 31.188,2.595 C31.270,2.757 31.434,2.920 31.598,3.083 C31.762,3.083 32.009,3.083 32.255,3.083 C32.583,3.327 32.911,3.490 33.239,3.734 C33.322,3.734 33.404,3.652 33.568,3.652 C33.978,4.222 34.224,4.955 34.799,5.362 C34.881,5.850 34.881,6.257 34.881,6.664 C34.553,7.559 34.306,8.374 33.568,8.943 ZM8.701,34.257 L8.619,34.339 L8.701,34.339 L8.701,34.257 ZM10.178,42.560 C10.178,42.723 10.260,42.886 10.260,43.048 C10.425,42.804 10.425,42.641 10.178,42.560 ZM16.826,27.827 C16.908,27.583 16.990,27.257 16.744,26.932 C16.744,27.257 16.744,27.583 16.826,27.827 ZM16.334,25.467 C16.415,25.141 16.580,24.815 16.334,24.490 C16.334,24.897 16.334,25.141 16.334,25.467 ZM16.826,18.792 C16.744,18.874 16.661,18.874 16.498,18.955 C16.334,18.304 16.415,17.571 16.169,16.757 C16.169,17.083 16.087,17.164 16.087,17.327 C16.169,18.223 16.169,19.199 16.251,20.095 C16.005,20.257 15.923,20.420 16.169,20.583 C16.334,20.420 16.251,20.257 16.251,20.095 C16.415,20.176 16.498,20.257 16.661,20.339 C17.072,19.362 17.072,19.362 16.826,18.792 ZM26.182,5.443 C26.182,5.443 26.100,5.524 26.100,5.606 C26.182,5.606 26.264,5.524 26.182,5.443 ZM23.391,11.466 C23.391,11.466 23.473,11.466 23.473,11.548 C23.391,11.548 23.391,11.548 23.391,11.548 L23.391,11.466 ZM23.309,10.978 C23.309,11.222 23.309,11.304 23.391,11.466 C23.145,11.385 23.145,11.304 23.309,10.978 ZM22.981,12.199 C22.981,12.118 22.981,12.036 22.981,11.955 C22.981,11.955 22.981,11.955 23.063,11.873 C23.063,11.955 23.063,12.036 23.145,12.118 L23.063,12.199 L22.981,12.199 ZM18.139,16.920 C17.975,16.757 18.139,16.757 18.221,16.757 C18.139,16.839 18.139,16.839 18.139,16.920 ZM18.221,16.676 C18.139,16.350 18.057,16.025 17.893,15.618 C18.139,15.780 18.303,15.943 18.385,16.025 C18.467,16.269 18.549,16.513 18.221,16.676 ZM0.002,1.536 C0.166,1.536 0.330,1.455 0.330,1.536 C0.658,1.699 0.904,1.862 1.069,2.024 C1.151,2.187 1.151,2.350 1.151,2.431 C0.740,2.187 0.412,1.943 0.084,1.699 C0.084,1.699 0.084,1.617 0.002,1.536 Z" class="cls-1"/>
</svg>
